<?xml version="1.0" standalone="no"?>
<!DOCTYPE svg PUBLIC "-//W3C//DTD SVG 20010904//EN"
 "http://www.w3.org/TR/2001/REC-SVG-20010904/DTD/svg10.dtd">
<svg version="1.0" xmlns="http://www.w3.org/2000/svg"
 width="500.000000pt" height="500.000000pt" viewBox="0 0 500.000000 500.000000"
 preserveAspectRatio="xMidYMid meet">

<g transform="translate(0.000000,500.000000) scale(0.100000,-0.100000)"
fill="#000000" stroke="none">
<path d="M2700 1456 l0 -106 58 0 c39 0 64 6 78 18 52 42 58 106 15 154 -24
27 -36 32 -90 36 l-61 4 0 -106z"/>
<path d="M1075 1531 c-110 -27 -176 -120 -161 -223 15 -99 87 -160 196 -166
74 -4 124 14 169 62 l24 26 -22 0 c-18 0 -22 4 -16 18 25 66 28 101 13 141
-16 39 -16 41 3 41 22 0 23 4 9 30 -26 48 -146 88 -215 71z m103 -46 c28 -12
33 -18 22 -25 -9 -6 -20 -4 -30 4 -29 25 -46 30 -26 8 18 -21 18 -21 -15 -36
-32 -15 -21 -15 27 -1 18 5 24 -1 37 -32 14 -35 13 -39 -2 -45 -15 -6 -14 -7
1 -7 19 -1 37 -67 22 -81 -14 -12 -71 -22 -77 -13 -2 4 -8 22 -11 39 -6 28 -4
33 21 43 43 17 -5 5 -62 -16 -27 -10 -52 -19 -54 -21 -3 -1 3 -18 12 -38 16
-33 20 -35 50 -28 17 4 53 7 79 8 27 1 48 4 48 9 0 4 7 7 15 7 22 0 18 -14
-14 -49 -33 -36 -71 -42 -71 -12 0 26 -12 32 -49 25 -31 -7 -31 -7 -14 -28 18
-21 18 -21 -3 -3 -11 9 -29 17 -40 18 -10 0 -14 3 -7 5 16 7 -17 84 -37 85
-10 0 -11 2 -2 6 7 2 12 22 12 44 0 30 -4 39 -17 39 -14 0 -13 3 5 16 12 8 22
21 22 29 0 8 4 17 10 20 7 4 7 -3 0 -19 -5 -14 -8 -26 -6 -26 2 0 18 5 35 11
30 11 32 14 26 45 -6 33 -5 34 25 34 17 0 47 -7 68 -15z m72 -67 c15 -24 16
-34 7 -40 -23 -15 -37 -8 -52 28 -19 46 -19 44 5 44 12 0 28 -13 40 -32z m20
-92 c0 -31 -5 -46 -16 -50 -21 -8 -20 -9 -27 41 -5 41 -2 46 36 52 4 0 7 -19
7 -43z"/>
<path d="M1038 1403 c-14 -3 -18 -15 -18 -45 l0 -40 38 7 c48 9 55 17 47 54
-7 31 -21 36 -67 24z"/>
<path d="M1380 1335 c0 -167 2 -195 15 -195 13 0 15 28 15 195 0 167 -2 195
-15 195 -13 0 -15 -28 -15 -195z"/>
<path d="M1490 1335 c0 -165 2 -195 15 -195 12 0 15 29 17 178 l3 177 67 0
c83 0 118 -25 118 -87 0 -47 -25 -71 -80 -78 l-40 -5 60 -92 c35 -55 66 -93
76 -93 21 0 15 15 -36 90 -46 67 -46 70 -22 70 9 0 27 8 38 18 71 57 54 162
-32 198 -19 8 -67 14 -109 14 l-75 0 0 -195z"/>
<path d="M1830 1333 l0 -196 96 6 c109 7 155 27 193 82 43 64 47 132 11 205
-37 73 -93 99 -217 100 l-83 0 0 -197z m182 157 c78 -22 125 -121 98 -207 -25
-76 -67 -102 -174 -105 l-76 -3 0 163 0 162 58 0 c31 0 74 -5 94 -10z"/>
<path d="M3850 1470 c0 -11 -3 -19 -7 -19 -21 3 -33 -3 -43 -21 -16 -30 4 -60
40 -60 30 0 30 0 30 60 0 33 -4 60 -10 60 -5 0 -10 -9 -10 -20z m-2 -55 c-2
-14 -7 -26 -13 -26 -5 0 -11 12 -13 26 -2 18 1 25 13 25 12 0 15 -7 13 -25z"/>
<path d="M2960 1426 c0 -31 5 -56 10 -56 6 0 10 9 10 19 0 12 11 23 31 30 24
8 30 15 27 33 -2 19 -10 24 -40 26 l-38 3 0 -55z m55 24 c0 -8 -8 -16 -17 -18
-13 -2 -18 3 -18 18 0 15 5 20 18 18 9 -2 17 -10 17 -18z"/>
<path d="M3285 1460 c-3 -6 -12 -10 -18 -9 -39 5 -46 -1 -45 -38 0 -21 -2 -44
-4 -51 -6 -24 27 -37 56 -24 33 15 34 42 2 42 -32 0 -43 18 -14 22 14 2 24 13
29 32 9 32 6 45 -6 26z m-15 -36 c0 -8 -7 -14 -15 -14 -15 0 -21 21 -9 33 10
9 24 -2 24 -19z m10 -63 c0 -12 -29 -23 -41 -15 -18 10 -9 24 16 24 14 0 25
-4 25 -9z"/>
<path d="M3072 1452 c-16 -2 -22 -8 -18 -19 3 -8 6 -26 6 -39 0 -14 4 -22 10
-19 6 3 10 19 10 35 0 19 6 30 18 32 25 5 1 15 -26 10z"/>
<path d="M3148 1453 c-10 -3 -21 -16 -24 -30 -9 -34 16 -58 50 -49 21 5 26 12
26 36 0 31 -22 49 -52 43z m32 -37 c0 -31 -14 -40 -30 -21 -15 18 -6 45 15 45
9 0 15 -9 15 -24z"/>
<path d="M3338 1453 c-14 -3 -18 -15 -18 -44 0 -24 4 -38 10 -34 6 3 10 19 10
35 0 19 6 30 18 32 9 2 13 6 7 9 -5 3 -18 4 -27 2z"/>
<path d="M3395 1450 c-3 -5 3 -10 14 -10 28 0 27 -13 -1 -25 -34 -15 -29 -39
10 -43 31 -3 32 -2 32 36 0 27 -5 42 -16 46 -22 8 -32 8 -39 -4z m35 -48 c0
-13 -12 -22 -22 -16 -10 6 -1 24 13 24 5 0 9 -4 9 -8z"/>
<path d="M3474 1451 c-9 -9 -4 -81 6 -81 6 0 10 16 10 35 0 24 5 35 15 35 10
0 15 -11 15 -35 0 -44 18 -46 22 -2 4 45 31 43 38 -3 4 -25 7 -30 12 -18 7 18
3 56 -7 67 -7 7 -104 9 -111 2z"/>
<path d="M3625 1450 c-3 -5 3 -10 14 -10 28 0 27 -13 -1 -25 -34 -15 -29 -39
10 -43 31 -3 32 -2 32 36 0 27 -5 42 -16 46 -22 8 -32 8 -39 -4z m35 -48 c0
-13 -12 -22 -22 -16 -10 6 -1 24 13 24 5 0 9 -4 9 -8z"/>
<path d="M3705 1451 c-9 -9 -5 -81 4 -81 6 0 11 15 13 33 2 20 8 32 18 32 10
0 16 -12 18 -32 2 -18 7 -33 13 -33 14 0 11 68 -3 77 -14 9 -56 12 -63 4z"/>
<path d="M3918 1453 c-23 -6 -34 -49 -18 -68 26 -31 70 -11 70 32 0 25 -25 42
-52 36z m28 -28 c4 -8 3 -23 0 -32 -6 -15 -8 -15 -23 -1 -16 17 -12 48 7 48 6
0 13 -7 16 -15z"/>
<path d="M2541 1316 c-30 -32 -37 -85 -17 -124 21 -42 44 -52 110 -52 l56 0 0
100 0 100 -63 0 c-54 0 -67 -4 -86 -24z"/>
<path d="M2960 1275 c0 -30 5 -55 10 -55 6 0 10 7 10 14 0 8 12 21 27 28 52
25 39 68 -19 68 -27 0 -28 -2 -28 -55z m60 21 c0 -15 -24 -28 -34 -19 -13 14
-5 33 14 33 11 0 20 -6 20 -14z"/>
<path d="M3340 1303 c-39 -7 -46 -18 -45 -70 1 -45 3 -48 29 -51 35 -4 61 15
45 34 -6 8 -23 15 -38 15 -23 2 -24 2 -3 6 19 4 53 43 36 43 -3 0 -1 7 6 15 7
8 9 14 4 14 -5 -1 -20 -4 -34 -6z m5 -23 c3 -6 -1 -13 -10 -16 -19 -8 -30 0
-20 15 8 14 22 14 30 1z m10 -80 c-3 -5 -15 -10 -26 -10 -10 0 -19 5 -19 10 0
6 12 10 26 10 14 0 23 -4 19 -10z"/>
<path d="M3060 1292 c0 -5 7 -9 16 -8 9 0 19 -5 21 -11 3 -8 -4 -13 -16 -13
-25 0 -40 -28 -22 -39 7 -5 23 -6 37 -3 22 4 25 9 22 41 -3 31 -7 36 -30 39
-16 2 -28 -1 -28 -6z m40 -52 c0 -5 -7 -10 -15 -10 -8 0 -15 5 -15 10 0 6 7
10 15 10 8 0 15 -4 15 -10z"/>
<path d="M3140 1259 c0 -22 5 -39 10 -39 6 0 10 14 10 30 0 20 5 30 15 30 8 0
15 4 15 9 0 5 -11 9 -25 9 -22 0 -25 -5 -25 -39z"/>
<path d="M3210 1291 c0 -5 8 -7 19 -4 30 8 35 -16 7 -27 -25 -9 -35 -33 -18
-43 4 -3 19 -3 35 0 27 5 35 30 21 67 -6 17 -64 23 -64 7z m50 -51 c0 -5 -7
-10 -15 -10 -8 0 -15 5 -15 10 0 6 7 10 15 10 8 0 15 -4 15 -10z"/>
<path d="M3390 1266 c0 -41 16 -56 53 -49 19 4 26 10 23 20 -3 8 -6 26 -6 39
0 13 -4 24 -10 24 -5 0 -10 -16 -10 -36 0 -45 -24 -42 -28 4 -4 43 -22 41 -22
-2z"/>
<path d="M3508 1290 c28 -12 29 -30 2 -30 -24 0 -39 -28 -21 -39 7 -5 23 -6
37 -3 22 4 25 9 22 41 -3 32 -6 36 -33 38 -27 2 -28 2 -7 -7z m22 -50 c0 -5
-7 -10 -15 -10 -8 0 -15 5 -15 10 0 6 7 10 15 10 8 0 15 -4 15 -10z"/>
<path d="M3570 1293 c0 -4 5 -22 12 -40 10 -27 10 -38 0 -53 -10 -16 -10 -20
2 -20 7 0 23 25 35 56 24 64 24 64 12 64 -5 0 -12 -12 -16 -27 l-8 -28 -10 28
c-10 24 -27 38 -27 20z"/>
</g>
</svg>
